<?xml version="1.0" encoding="UTF-8" standalone="no"?><svg xmlns="http://www.w3.org/2000/svg" xmlns:xlink="http://www.w3.org/1999/xlink" contentStyleType="text/css" height="294px" preserveAspectRatio="none" style="width:782px;height:294px;background:#FFFFFF;" version="1.1" viewBox="0 0 782 294" width="782px" zoomAndPan="magnify"><defs/><g><!--class Program--><g id="elem_Program"><rect codeLine="1" fill="#F1F1F1" height="64.4883" id="Program" rx="2.5" ry="2.5" style="stroke:#181818;stroke-width:0.5;" width="109" x="549.5" y="7"/><ellipse cx="572.6" cy="23" fill="#ADD1B2" rx="11" ry="11" style="stroke:#181818;stroke-width:1.0;"/><path d="M575.0731,29.1431 Q574.4921,29.4419 573.8529,29.5913 Q573.2138,29.7407 572.5082,29.7407 Q570.0014,29.7407 568.6815,28.0889 Q567.3617,26.437 567.3617,23.3159 Q567.3617,20.1865 568.6815,18.5347 Q570.0014,16.8828 572.5082,16.8828 Q573.2138,16.8828 573.8612,17.0322 Q574.5087,17.1816 575.0731,17.4805 L575.0731,20.2031 Q574.4423,19.6221 573.8488,19.3523 Q573.2553,19.0825 572.6244,19.0825 Q571.2797,19.0825 570.5949,20.1492 Q569.9101,21.2158 569.9101,23.3159 Q569.9101,25.4077 570.5949,26.4744 Q571.2797,27.541 572.6244,27.541 Q573.2553,27.541 573.8488,27.2712 Q574.4423,27.0015 575.0731,26.4204 Z " fill="#000000"/><text fill="#000000" font-family="sans-serif" font-size="14" lengthAdjust="spacing" textLength="59" x="588.4" y="28.291">Program</text><line style="stroke:#181818;stroke-width:0.5;" x1="550.5" x2="657.5" y1="39" y2="39"/><text fill="#000000" font-family="sans-serif" font-size="14" lengthAdjust="spacing" textLength="97" x="555.5" y="56.5352">_name: string;</text><line style="stroke:#181818;stroke-width:0.5;" x1="550.5" x2="657.5" y1="63.4883" y2="63.4883"/></g><!--class Encounter--><g id="elem_Encounter"><rect codeLine="4" fill="#F1F1F1" height="48" id="Encounter" rx="2.5" ry="2.5" style="stroke:#181818;stroke-width:0.5;" width="102" x="414" y="131"/><ellipse cx="429" cy="147" fill="#A9DCDF" rx="11" ry="11" style="stroke:#181818;stroke-width:1.0;"/><path d="M428.8633,142.3481 L427.7095,147.4199 L430.0254,147.4199 Z M427.3691,140.1069 L430.3657,140.1069 L433.7109,152.5 L431.2622,152.5 L430.4985,149.437 L427.2197,149.437 L426.4727,152.5 L424.0239,152.5 Z " fill="#000000"/><text fill="#000000" font-family="sans-serif" font-size="14" font-style="italic" lengthAdjust="spacing" textLength="70" x="443" y="152.291">Encounter</text><line style="stroke:#181818;stroke-width:0.5;" x1="415" x2="515" y1="163" y2="163"/><line style="stroke:#181818;stroke-width:0.5;" x1="415" x2="515" y1="171" y2="171"/></g><!--class SimpleEncounter--><g id="elem_SimpleEncounter"><rect codeLine="7" fill="#F1F1F1" height="48" id="SimpleEncounter" rx="2.5" ry="2.5" style="stroke:#181818;stroke-width:0.5;" width="148" x="7" y="239"/><ellipse cx="22" cy="255" fill="#ADD1B2" rx="11" ry="11" style="stroke:#181818;stroke-width:1.0;"/><path d="M24.4731,261.1431 Q23.8921,261.4419 23.2529,261.5913 Q22.6138,261.7407 21.9082,261.7407 Q19.4014,261.7407 18.0815,260.0889 Q16.7617,258.437 16.7617,255.3159 Q16.7617,252.1865 18.0815,250.5347 Q19.4014,248.8828 21.9082,248.8828 Q22.6138,248.8828 23.2612,249.0322 Q23.9087,249.1816 24.4731,249.4805 L24.4731,252.2031 Q23.8423,251.6221 23.2488,251.3523 Q22.6553,251.0825 22.0244,251.0825 Q20.6797,251.0825 19.9949,252.1492 Q19.3101,253.2158 19.3101,255.3159 Q19.3101,257.4077 19.9949,258.4744 Q20.6797,259.541 22.0244,259.541 Q22.6553,259.541 23.2488,259.2712 Q23.8423,259.0015 24.4731,258.4204 Z " fill="#000000"/><text fill="#000000" font-family="sans-serif" font-size="14" lengthAdjust="spacing" textLength="116" x="36" y="260.291">SimpleEncounter</text><line style="stroke:#181818;stroke-width:0.5;" x1="8" x2="154" y1="271" y2="271"/><line style="stroke:#181818;stroke-width:0.5;" x1="8" x2="154" y1="279" y2="279"/></g><!--class BossEncounter--><g id="elem_BossEncounter"><rect codeLine="10" fill="#F1F1F1" height="48" id="BossEncounter" rx="2.5" ry="2.5" style="stroke:#181818;stroke-width:0.5;" width="133" x="190.5" y="239"/><ellipse cx="205.5" cy="255" fill="#ADD1B2" rx="11" ry="11" style="stroke:#181818;stroke-width:1.0;"/><path d="M207.9731,261.1431 Q207.3921,261.4419 206.7529,261.5913 Q206.1138,261.7407 205.4082,261.7407 Q202.9014,261.7407 201.5815,260.0889 Q200.2617,258.437 200.2617,255.3159 Q200.2617,252.1865 201.5815,250.5347 Q202.9014,248.8828 205.4082,248.8828 Q206.1138,248.8828 206.7612,249.0322 Q207.4087,249.1816 207.9731,249.4805 L207.9731,252.2031 Q207.3423,251.6221 206.7488,251.3523 Q206.1553,251.0825 205.5244,251.0825 Q204.1797,251.0825 203.4949,252.1492 Q202.8101,253.2158 202.8101,255.3159 Q202.8101,257.4077 203.4949,258.4744 Q204.1797,259.541 205.5244,259.541 Q206.1553,259.541 206.7488,259.2712 Q207.3423,259.0015 207.9731,258.4204 Z " fill="#000000"/><text fill="#000000" font-family="sans-serif" font-size="14" lengthAdjust="spacing" textLength="101" x="219.5" y="260.291">BossEncounter</text><line style="stroke:#181818;stroke-width:0.5;" x1="191.5" x2="322.5" y1="271" y2="271"/><line style="stroke:#181818;stroke-width:0.5;" x1="191.5" x2="322.5" y1="279" y2="279"/></g><!--class CompoundEncounter--><g id="elem_CompoundEncounter"><rect codeLine="13" fill="#F1F1F1" height="48" id="CompoundEncounter" rx="2.5" ry="2.5" style="stroke:#181818;stroke-width:0.5;" width="179" x="358.5" y="239"/><ellipse cx="373.5" cy="255" fill="#ADD1B2" rx="11" ry="11" style="stroke:#181818;stroke-width:1.0;"/><path d="M375.9731,261.1431 Q375.3921,261.4419 374.7529,261.5913 Q374.1138,261.7407 373.4082,261.7407 Q370.9014,261.7407 369.5815,260.0889 Q368.2617,258.437 368.2617,255.3159 Q368.2617,252.1865 369.5815,250.5347 Q370.9014,248.8828 373.4082,248.8828 Q374.1138,248.8828 374.7612,249.0322 Q375.4087,249.1816 375.9731,249.4805 L375.9731,252.2031 Q375.3423,251.6221 374.7488,251.3523 Q374.1553,251.0825 373.5244,251.0825 Q372.1797,251.0825 371.4949,252.1492 Q370.8101,253.2158 370.8101,255.3159 Q370.8101,257.4077 371.4949,258.4744 Q372.1797,259.541 373.5244,259.541 Q374.1553,259.541 374.7488,259.2712 Q375.3423,259.0015 375.9731,258.4204 Z " fill="#000000"/><text fill="#000000" font-family="sans-serif" font-size="14" lengthAdjust="spacing" textLength="147" x="387.5" y="260.291">CompoundEncounter</text><line style="stroke:#181818;stroke-width:0.5;" x1="359.5" x2="536.5" y1="271" y2="271"/><line style="stroke:#181818;stroke-width:0.5;" x1="359.5" x2="536.5" y1="279" y2="279"/></g><!--class Player--><g id="elem_Player"><rect codeLine="16" fill="#F1F1F1" height="48" id="Player" rx="2.5" ry="2.5" style="stroke:#181818;stroke-width:0.5;" width="73" x="567.5" y="131"/><ellipse cx="582.5" cy="147" fill="#ADD1B2" rx="11" ry="11" style="stroke:#181818;stroke-width:1.0;"/><path d="M584.9731,153.1431 Q584.3921,153.4419 583.7529,153.5913 Q583.1138,153.7407 582.4082,153.7407 Q579.9014,153.7407 578.5815,152.0889 Q577.2617,150.437 577.2617,147.3159 Q577.2617,144.1865 578.5815,142.5347 Q579.9014,140.8828 582.4082,140.8828 Q583.1138,140.8828 583.7612,141.0322 Q584.4087,141.1816 584.9731,141.4805 L584.9731,144.2031 Q584.3423,143.6221 583.7488,143.3523 Q583.1553,143.0825 582.5244,143.0825 Q581.1797,143.0825 580.4949,144.1492 Q579.8101,145.2158 579.8101,147.3159 Q579.8101,149.4077 580.4949,150.4744 Q581.1797,151.541 582.5244,151.541 Q583.1553,151.541 583.7488,151.2712 Q584.3423,151.0015 584.9731,150.4204 Z " fill="#000000"/><text fill="#000000" font-family="sans-serif" font-size="14" lengthAdjust="spacing" textLength="41" x="596.5" y="152.291">Player</text><line style="stroke:#181818;stroke-width:0.5;" x1="568.5" x2="639.5" y1="163" y2="163"/><line style="stroke:#181818;stroke-width:0.5;" x1="568.5" x2="639.5" y1="171" y2="171"/></g><!--class Item--><g id="elem_Item"><rect codeLine="19" fill="#F1F1F1" height="48" id="Item" rx="2.5" ry="2.5" style="stroke:#181818;stroke-width:0.5;" width="62" x="573" y="239"/><ellipse cx="588" cy="255" fill="#ADD1B2" rx="11" ry="11" style="stroke:#181818;stroke-width:1.0;"/><path d="M590.4731,261.1431 Q589.8921,261.4419 589.2529,261.5913 Q588.6138,261.7407 587.9082,261.7407 Q585.4014,261.7407 584.0815,260.0889 Q582.7617,258.437 582.7617,255.3159 Q582.7617,252.1865 584.0815,250.5347 Q585.4014,248.8828 587.9082,248.8828 Q588.6138,248.8828 589.2612,249.0322 Q589.9087,249.1816 590.4731,249.4805 L590.4731,252.2031 Q589.8423,251.6221 589.2488,251.3523 Q588.6553,251.0825 588.0244,251.0825 Q586.6797,251.0825 585.9949,252.1492 Q585.3101,253.2158 585.3101,255.3159 Q585.3101,257.4077 585.9949,258.4744 Q586.6797,259.541 588.0244,259.541 Q588.6553,259.541 589.2488,259.2712 Q589.8423,259.0015 590.4731,258.4204 Z " fill="#000000"/><text fill="#000000" font-family="sans-serif" font-size="14" lengthAdjust="spacing" textLength="30" x="602" y="260.291">Item</text><line style="stroke:#181818;stroke-width:0.5;" x1="574" x2="634" y1="271" y2="271"/><line style="stroke:#181818;stroke-width:0.5;" x1="574" x2="634" y1="279" y2="279"/></g><!--class TextImage--><g id="elem_TextImage"><rect codeLine="22" fill="#F1F1F1" height="48" id="TextImage" rx="2.5" ry="2.5" style="stroke:#181818;stroke-width:0.5;" width="105" x="670.5" y="239"/><ellipse cx="685.5" cy="255" fill="#ADD1B2" rx="11" ry="11" style="stroke:#181818;stroke-width:1.0;"/><path d="M687.9731,261.1431 Q687.3921,261.4419 686.7529,261.5913 Q686.1138,261.7407 685.4082,261.7407 Q682.9014,261.7407 681.5815,260.0889 Q680.2617,258.437 680.2617,255.3159 Q680.2617,252.1865 681.5815,250.5347 Q682.9014,248.8828 685.4082,248.8828 Q686.1138,248.8828 686.7612,249.0322 Q687.4087,249.1816 687.9731,249.4805 L687.9731,252.2031 Q687.3423,251.6221 686.7488,251.3523 Q686.1553,251.0825 685.5244,251.0825 Q684.1797,251.0825 683.4949,252.1492 Q682.8101,253.2158 682.8101,255.3159 Q682.8101,257.4077 683.4949,258.4744 Q684.1797,259.541 685.5244,259.541 Q686.1553,259.541 686.7488,259.2712 Q687.3423,259.0015 687.9731,258.4204 Z " fill="#000000"/><text fill="#000000" font-family="sans-serif" font-size="14" lengthAdjust="spacing" textLength="73" x="699.5" y="260.291">TextImage</text><line style="stroke:#181818;stroke-width:0.5;" x1="671.5" x2="774.5" y1="271" y2="271"/><line style="stroke:#181818;stroke-width:0.5;" x1="671.5" x2="774.5" y1="279" y2="279"/></g><!--reverse link Encounter to SimpleEncounter--><g id="link_Encounter_SimpleEncounter"><path codeLine="26" d="M393.29,175.8 C325.48,194.51 224.16,222.48 155.47,241.44 " fill="none" id="Encounter-backto-SimpleEncounter" style="stroke:#181818;stroke-width:1.0;"/><polygon fill="none" points="391.01,169.16,412.15,170.59,394.74,182.66,391.01,169.16" style="stroke:#181818;stroke-width:1.0;"/></g><!--reverse link Encounter to BossEncounter--><g id="link_Encounter_BossEncounter"><path codeLine="27" d="M400.28,188.98 C368.67,205.09 331.4,224.09 302.79,238.67 " fill="none" id="Encounter-backto-BossEncounter" style="stroke:#181818;stroke-width:1.0;"/><polygon fill="none" points="396.75,182.92,417.75,180.08,403.11,195.4,396.75,182.92" style="stroke:#181818;stroke-width:1.0;"/></g><!--reverse link Encounter to CompoundEncounter--><g id="link_Encounter_CompoundEncounter"><path codeLine="28" d="M457.91,200.24 C455.78,213.48 453.54,227.48 451.72,238.79 " fill="none" id="Encounter-backto-CompoundEncounter" style="stroke:#181818;stroke-width:1.0;"/><polygon fill="none" points="450.95,199.4,461.03,180.76,464.77,201.61,450.95,199.4" style="stroke:#181818;stroke-width:1.0;"/></g><!--reverse link Program to Encounter--><g id="link_Program_Encounter"><path codeLine="29" d="M554.59,80.52 C534.12,97.31 511.1,116.19 493.52,130.61 " fill="none" id="Program-backto-Encounter" style="stroke:#181818;stroke-width:1.0;"/><polygon fill="none" points="564.48,72.41,557.3044,73.1247,555.2043,80.0232,562.3799,79.3085,564.48,72.41" style="stroke:#181818;stroke-width:1.0;"/><text fill="#000000" font-family="sans-serif" font-size="13" lengthAdjust="spacing" textLength="8" x="548.9153" y="92.2397">1</text><text fill="#000000" font-family="sans-serif" font-size="13" lengthAdjust="spacing" textLength="34" x="462.328" y="120.443">many</text></g><!--reverse link Program to Player--><g id="link_Program_Player"><path codeLine="30" d="M604,85.71 C604,101.11 604,117.66 604,130.61 " fill="none" id="Program-backto-Player" style="stroke:#181818;stroke-width:1.0;"/><polygon fill="none" points="604,72.97,600,78.97,604,84.97,608,78.97,604,72.97" style="stroke:#181818;stroke-width:1.0;"/><text fill="#000000" font-family="sans-serif" font-size="13" lengthAdjust="spacing" textLength="8" x="595.175" y="92.2397">1</text><text fill="#000000" font-family="sans-serif" font-size="13" lengthAdjust="spacing" textLength="34" x="565.8563" y="120.443">many</text></g><!--reverse link Player to Item--><g id="link_Player_Item"><path codeLine="31" d="M604,193.54 C604,208.63 604,225.55 604,238.79 " fill="none" id="Player-backto-Item" style="stroke:#181818;stroke-width:1.0;"/><polygon fill="none" points="604,180.78,600,186.78,604,192.78,608,186.78,604,180.78" style="stroke:#181818;stroke-width:1.0;"/><text fill="#000000" font-family="sans-serif" font-size="13" lengthAdjust="spacing" textLength="8" x="595.025" y="199.6077">1</text><text fill="#000000" font-family="sans-serif" font-size="13" lengthAdjust="spacing" textLength="34" x="565.6438" y="228.2725">many</text></g><!--reverse link Encounter to TextImage--><g id="link_Encounter_TextImage"><path codeLine="32" d="M529.57,182.53 C572.92,200.34 629.34,223.52 670.04,240.24 " fill="none" id="Encounter-backto-TextImage" style="stroke:#181818;stroke-width:1.0;"/><polygon fill="none" points="517.68,177.64,521.7129,183.6179,528.7821,182.1944,524.7492,176.2165,517.68,177.64" style="stroke:#181818;stroke-width:1.0;"/></g><!--reverse link Program to TextImage--><g id="link_Program_TextImage"><path codeLine="33" d="M630.58,83.29 C639.54,98.26 649.43,115.24 658,131 C678.13,168.02 699.49,212.11 712.01,238.54 " fill="none" id="Program-backto-TextImage" style="stroke:#181818;stroke-width:1.0;"/><polygon fill="none" points="624.11,72.55,623.7847,79.7538,630.3091,82.8248,630.6345,75.621,624.11,72.55" style="stroke:#181818;stroke-width:1.0;"/></g><!--reverse link Encounter to Item--><g id="link_Encounter_Item"><path codeLine="34" d="M506.93,187.97 C528.39,204.34 554.03,223.89 573.57,238.79 " fill="none" id="Encounter-backto-Item" style="stroke:#181818;stroke-width:1.0;"/><polygon fill="none" points="496.71,180.18,499.0621,186.9967,506.2591,187.4474,503.907,180.6306,496.71,180.18" style="stroke:#181818;stroke-width:1.0;"/></g><!--SRC=[XP9HJy8m58NV-ojkzWGF8u10SFfWG5G8InOtU3LbgqkJzPQq7P6e_zsM0R99Of_QyvtTUqzNRQZXAQG5rHeY9ND51NmIiEiDgM01QACuvdVacz2DtTFK7DqpJ6M9XYdhjxGIOows1RkA9bBhgs0gnTQgsLKO5NHVL-Q6YSjpmZxCND2SLIBvBNF_vVlDYPguDbKJ_fcCdAx8wtaWhSCJ5FSU_6keOf1ZcWPqYIvQEt8ETIvOL-lkGm6x7XXcn3L1imgNi6DASudGw_Ix_PjEhnMN20kAqB-5xY0OZeFX2A8u0OVRfFKSBK7BKgKCCkx- -wOqzlisMT0TXLVRZxiNuKwj96n3F3k9zW9sN4aK30rPhCFA12_In5jf3kRHm9zm0p5JTYnOX-IHlTEoC8Uxo-mJ2s2LFFbZigIObpPZ00p9rALKUylY7m00]--></g></svg>