<?xml version="1.0" encoding="UTF-8" standalone="no"?><svg xmlns="http://www.w3.org/2000/svg" xmlns:xlink="http://www.w3.org/1999/xlink" contentStyleType="text/css" height="564px" preserveAspectRatio="none" style="width:1286px;height:564px;background:#FFFFFF;" version="1.1" viewBox="0 0 1286 564" width="1286px" zoomAndPan="magnify"><defs/><g><!--class Program--><g id="elem_Program"><rect codeLine="1" fill="#F1F1F1" height="64.4883" id="Program" rx="2.5" ry="2.5" style="stroke:#181818;stroke-width:0.5;" width="106" x="264" y="7"/><ellipse cx="285.75" cy="23" fill="#ADD1B2" rx="11" ry="11" style="stroke:#181818;stroke-width:1.0;"/><path d="M288.2231,29.1431 Q287.6421,29.4419 287.0029,29.5913 Q286.3638,29.7407 285.6582,29.7407 Q283.1514,29.7407 281.8315,28.0889 Q280.5117,26.437 280.5117,23.3159 Q280.5117,20.1865 281.8315,18.5347 Q283.1514,16.8828 285.6582,16.8828 Q286.3638,16.8828 287.0112,17.0322 Q287.6587,17.1816 288.2231,17.4805 L288.2231,20.2031 Q287.5923,19.6221 286.9988,19.3523 Q286.4053,19.0825 285.7744,19.0825 Q284.4297,19.0825 283.7449,20.1492 Q283.0601,21.2158 283.0601,23.3159 Q283.0601,25.4077 283.7449,26.4744 Q284.4297,27.541 285.7744,27.541 Q286.4053,27.541 286.9988,27.2712 Q287.5923,27.0015 288.2231,26.4204 Z " fill="#000000"/><text fill="#000000" font-family="sans-serif" font-size="14" lengthAdjust="spacing" textLength="59" x="301.25" y="28.291">Program</text><line style="stroke:#181818;stroke-width:0.5;" x1="265" x2="369" y1="39" y2="39"/><ellipse cx="275" cy="52.7441" fill="none" rx="3" ry="3" style="stroke:#038048;stroke-width:1.0;"/><text fill="#000000" font-family="sans-serif" font-size="14" lengthAdjust="spacing" textLength="80" x="284" y="56.5352">table: Table</text><line style="stroke:#181818;stroke-width:0.5;" x1="265" x2="369" y1="63.4883" y2="63.4883"/></g><!--class Encounter--><g id="elem_Encounter"><rect codeLine="4" fill="#F1F1F1" height="179.9063" id="Encounter" rx="2.5" ry="2.5" style="stroke:#181818;stroke-width:0.5;" width="158" x="521" y="151"/><ellipse cx="561.2" cy="167" fill="#A9DCDF" rx="11" ry="11" style="stroke:#181818;stroke-width:1.0;"/><path d="M561.0633,162.3481 L559.9095,167.4199 L562.2254,167.4199 Z M559.5691,160.1069 L562.5657,160.1069 L565.9109,172.5 L563.4622,172.5 L562.6985,169.437 L559.4197,169.437 L558.6727,172.5 L556.2239,172.5 Z " fill="#000000"/><text fill="#000000" font-family="sans-serif" font-size="14" font-style="italic" lengthAdjust="spacing" textLength="70" x="580.8" y="172.291">Encounter</text><line style="stroke:#181818;stroke-width:0.5;" x1="522" x2="678" y1="183" y2="183"/><polygon fill="none" points="532,191.7441,536,195.7441,532,199.7441,528,195.7441" style="stroke:#B38D22;stroke-width:1.0;"/><text fill="#000000" font-family="sans-serif" font-size="14" lengthAdjust="spacing" textLength="86" x="541" y="200.5352">name: string</text><polygon fill="none" points="532,208.2324,536,212.2324,532,216.2324,528,212.2324" style="stroke:#B38D22;stroke-width:1.0;"/><text fill="#000000" font-family="sans-serif" font-size="14" lengthAdjust="spacing" textLength="125" x="541" y="217.0234">description: string</text><polygon fill="none" points="532,224.7207,536,228.7207,532,232.7207,528,228.7207" style="stroke:#B38D22;stroke-width:1.0;"/><text fill="#000000" font-family="sans-serif" font-size="14" lengthAdjust="spacing" textLength="103" x="541" y="233.5117">rewards: Item[]</text><polygon fill="none" points="532,241.209,536,245.209,532,249.209,528,245.209" style="stroke:#B38D22;stroke-width:1.0;"/><text fill="#000000" font-family="sans-serif" font-size="14" lengthAdjust="spacing" textLength="111" x="541" y="250">card: TextImage</text><polygon fill="none" points="532,257.6973,536,261.6973,532,265.6973,528,261.6973" style="stroke:#B38D22;stroke-width:1.0;"/><text fill="#000000" font-family="sans-serif" font-size="14" lengthAdjust="spacing" textLength="123" x="541" y="266.4883">image: TextImage</text><line style="stroke:#181818;stroke-width:0.5;" x1="522" x2="678" y1="273.4414" y2="273.4414"/><polygon fill="#FFFF44" points="532,282.1855,536,286.1855,532,290.1855,528,286.1855" style="stroke:#B38D22;stroke-width:1.0;"/><text fill="#000000" font-family="sans-serif" font-size="14" lengthAdjust="spacing" textLength="82" x="541" y="290.9766">Draw(): void</text><polygon fill="#FFFF44" points="532,298.6738,536,302.6738,532,306.6738,528,302.6738" style="stroke:#B38D22;stroke-width:1.0;"/><text fill="#000000" font-family="sans-serif" font-size="14" lengthAdjust="spacing" textLength="101" x="541" y="307.4648">Run(): boolean</text><polygon fill="#FFFF44" points="532,315.1621,536,319.1621,532,323.1621,528,319.1621" style="stroke:#B38D22;stroke-width:1.0;"/><text fill="#000000" font-family="sans-serif" font-size="14" lengthAdjust="spacing" textLength="132" x="541" y="323.9531">GetReward(): Item[]</text></g><polygon fill="none" points="601.6201,330.9063,608.9791,350.777,594.9814,351.0291" style="stroke:#181818;stroke-width:1.0;"/><line style="stroke:#181818;stroke-width:1.0;" x1="601.9802" x2="602" y1="350.903" y2="352"/><line style="stroke:#181818;stroke-width:1.0;" x1="674.4624" x2="698.46" y1="151" y2="122.01"/><line style="stroke:#181818;stroke-width:1.0;" x1="679" x2="713.51" y1="240.9857" y2="241"/><line style="stroke:#181818;stroke-width:1.0;" x1="529.2849" x2="513.35" y1="151" y2="130.73"/><line style="stroke:#181818;stroke-width:1.0;" x1="521" x2="500.72" y1="240.9904" y2="241"/><!--class SimpleEncounter--><g id="elem_SimpleEncounter"><rect codeLine="15" fill="#F1F1F1" height="97.4648" id="SimpleEncounter" rx="2.5" ry="2.5" style="stroke:#181818;stroke-width:0.5;" width="148" x="864" y="436"/><ellipse cx="879" cy="452" fill="#ADD1B2" rx="11" ry="11" style="stroke:#181818;stroke-width:1.0;"/><path d="M881.4731,458.1431 Q880.8921,458.4419 880.2529,458.5913 Q879.6138,458.7407 878.9082,458.7407 Q876.4014,458.7407 875.0815,457.0889 Q873.7617,455.437 873.7617,452.3159 Q873.7617,449.1865 875.0815,447.5347 Q876.4014,445.8828 878.9082,445.8828 Q879.6138,445.8828 880.2612,446.0322 Q880.9087,446.1816 881.4731,446.4805 L881.4731,449.2031 Q880.8423,448.6221 880.2488,448.3523 Q879.6553,448.0825 879.0244,448.0825 Q877.6797,448.0825 876.9949,449.1492 Q876.3101,450.2158 876.3101,452.3159 Q876.3101,454.4077 876.9949,455.4744 Q877.6797,456.541 879.0244,456.541 Q879.6553,456.541 880.2488,456.2712 Q880.8423,456.0015 881.4731,455.4204 Z " fill="#000000"/><text fill="#000000" font-family="sans-serif" font-size="14" lengthAdjust="spacing" textLength="116" x="893" y="457.291">SimpleEncounter</text><line style="stroke:#181818;stroke-width:0.5;" x1="865" x2="1011" y1="468" y2="468"/><rect fill="none" height="6" style="stroke:#C82930;stroke-width:1.0;" width="6" x="872" y="478.7441"/><text fill="#000000" font-family="sans-serif" font-size="14" lengthAdjust="spacing" textLength="44" x="884" y="485.5352">hp: int</text><rect fill="none" height="6" style="stroke:#C82930;stroke-width:1.0;" width="6" x="872" y="495.2324"/><text fill="#000000" font-family="sans-serif" font-size="14" lengthAdjust="spacing" textLength="81" x="884" y="502.0234">damage: int</text><rect fill="none" height="6" style="stroke:#C82930;stroke-width:1.0;" width="6" x="872" y="511.7207"/><text fill="#000000" font-family="sans-serif" font-size="14" lengthAdjust="spacing" textLength="76" x="884" y="518.5117">type: enum</text><line style="stroke:#181818;stroke-width:0.5;" x1="865" x2="1011" y1="525.4648" y2="525.4648"/></g><!--class BossEncounter--><g id="elem_BossEncounter"><rect codeLine="20" fill="#F1F1F1" height="146.9297" id="BossEncounter" rx="2.5" ry="2.5" style="stroke:#181818;stroke-width:0.5;" width="133" x="423.5" y="411"/><ellipse cx="438.5" cy="427" fill="#ADD1B2" rx="11" ry="11" style="stroke:#181818;stroke-width:1.0;"/><path d="M440.9731,433.1431 Q440.3921,433.4419 439.7529,433.5913 Q439.1138,433.7407 438.4082,433.7407 Q435.9014,433.7407 434.5815,432.0889 Q433.2617,430.437 433.2617,427.3159 Q433.2617,424.1865 434.5815,422.5347 Q435.9014,420.8828 438.4082,420.8828 Q439.1138,420.8828 439.7612,421.0322 Q440.4087,421.1816 440.9731,421.4805 L440.9731,424.2031 Q440.3423,423.6221 439.7488,423.3523 Q439.1553,423.0825 438.5244,423.0825 Q437.1797,423.0825 436.4949,424.1492 Q435.8101,425.2158 435.8101,427.3159 Q435.8101,429.4077 436.4949,430.4744 Q437.1797,431.541 438.5244,431.541 Q439.1553,431.541 439.7488,431.2712 Q440.3423,431.0015 440.9731,430.4204 Z " fill="#000000"/><text fill="#000000" font-family="sans-serif" font-size="14" lengthAdjust="spacing" textLength="101" x="452.5" y="432.291">BossEncounter</text><line style="stroke:#181818;stroke-width:0.5;" x1="424.5" x2="555.5" y1="443" y2="443"/><rect fill="none" height="6" style="stroke:#C82930;stroke-width:1.0;" width="6" x="431.5" y="453.7441"/><text fill="#000000" font-family="sans-serif" font-size="14" lengthAdjust="spacing" textLength="44" x="443.5" y="460.5352">hp: int</text><rect fill="none" height="6" style="stroke:#C82930;stroke-width:1.0;" width="6" x="431.5" y="470.2324"/><text fill="#000000" font-family="sans-serif" font-size="14" lengthAdjust="spacing" textLength="90" x="443.5" y="477.0234">damage1: int</text><rect fill="none" height="6" style="stroke:#C82930;stroke-width:1.0;" width="6" x="431.5" y="486.7207"/><text fill="#000000" font-family="sans-serif" font-size="14" lengthAdjust="spacing" textLength="85" x="443.5" y="493.5117">type1: enum</text><rect fill="none" height="6" style="stroke:#C82930;stroke-width:1.0;" width="6" x="431.5" y="503.209"/><text fill="#000000" font-family="sans-serif" font-size="14" lengthAdjust="spacing" textLength="90" x="443.5" y="510">damage2: int</text><rect fill="none" height="6" style="stroke:#C82930;stroke-width:1.0;" width="6" x="431.5" y="519.6973"/><text fill="#000000" font-family="sans-serif" font-size="14" lengthAdjust="spacing" textLength="85" x="443.5" y="526.4883">type2: enum</text><rect fill="none" height="6" style="stroke:#C82930;stroke-width:1.0;" width="6" x="431.5" y="536.1855"/><text fill="#000000" font-family="sans-serif" font-size="14" lengthAdjust="spacing" textLength="82" x="443.5" y="542.9766">weak: enum</text><line style="stroke:#181818;stroke-width:0.5;" x1="424.5" x2="555.5" y1="549.9297" y2="549.9297"/></g><!--class CompoundEncounter--><g id="elem_CompoundEncounter"><rect codeLine="28" fill="#F1F1F1" height="64.4883" id="CompoundEncounter" rx="2.5" ry="2.5" style="stroke:#181818;stroke-width:0.5;" width="237" x="591.5" y="452.5"/><ellipse cx="632.6" cy="468.5" fill="#ADD1B2" rx="11" ry="11" style="stroke:#181818;stroke-width:1.0;"/><path d="M635.0731,474.6431 Q634.4921,474.9419 633.8529,475.0913 Q633.2138,475.2407 632.5082,475.2407 Q630.0014,475.2407 628.6815,473.5889 Q627.3617,471.937 627.3617,468.8159 Q627.3617,465.6865 628.6815,464.0347 Q630.0014,462.3828 632.5082,462.3828 Q633.2138,462.3828 633.8612,462.5322 Q634.5087,462.6816 635.0731,462.9805 L635.0731,465.7031 Q634.4423,465.1221 633.8488,464.8523 Q633.2553,464.5825 632.6244,464.5825 Q631.2797,464.5825 630.5949,465.6492 Q629.9101,466.7158 629.9101,468.8159 Q629.9101,470.9077 630.5949,471.9744 Q631.2797,473.041 632.6244,473.041 Q633.2553,473.041 633.8488,472.7712 Q634.4423,472.5015 635.0731,471.9204 Z " fill="#000000"/><text fill="#000000" font-family="sans-serif" font-size="14" lengthAdjust="spacing" textLength="147" x="652.4" y="473.791">CompoundEncounter</text><line style="stroke:#181818;stroke-width:0.5;" x1="592.5" x2="827.5" y1="484.5" y2="484.5"/><rect fill="none" height="6" style="stroke:#C82930;stroke-width:1.0;" width="6" x="599.5" y="495.2441"/><text fill="#000000" font-family="sans-serif" font-size="14" lengthAdjust="spacing" textLength="211" x="611.5" y="502.0352">Encounters: SimpleEncounter[]</text><line style="stroke:#181818;stroke-width:0.5;" x1="592.5" x2="827.5" y1="508.9883" y2="508.9883"/></g><!--class TrapEncounter--><g id="elem_TrapEncounter"><rect codeLine="31" fill="#F1F1F1" height="80.9766" id="TrapEncounter" rx="2.5" ry="2.5" style="stroke:#181818;stroke-width:0.5;" width="134" x="254" y="444"/><ellipse cx="269" cy="460" fill="#ADD1B2" rx="11" ry="11" style="stroke:#181818;stroke-width:1.0;"/><path d="M271.4731,466.1431 Q270.8921,466.4419 270.2529,466.5913 Q269.6138,466.7407 268.9082,466.7407 Q266.4014,466.7407 265.0815,465.0889 Q263.7617,463.437 263.7617,460.3159 Q263.7617,457.1865 265.0815,455.5347 Q266.4014,453.8828 268.9082,453.8828 Q269.6138,453.8828 270.2612,454.0322 Q270.9087,454.1816 271.4731,454.4805 L271.4731,457.2031 Q270.8423,456.6221 270.2488,456.3523 Q269.6553,456.0825 269.0244,456.0825 Q267.6797,456.0825 266.9949,457.1492 Q266.3101,458.2158 266.3101,460.3159 Q266.3101,462.4077 266.9949,463.4744 Q267.6797,464.541 269.0244,464.541 Q269.6553,464.541 270.2488,464.2712 Q270.8423,464.0015 271.4731,463.4204 Z " fill="#000000"/><text fill="#000000" font-family="sans-serif" font-size="14" lengthAdjust="spacing" textLength="102" x="283" y="465.291">TrapEncounter</text><line style="stroke:#181818;stroke-width:0.5;" x1="255" x2="387" y1="476" y2="476"/><rect fill="none" height="6" style="stroke:#C82930;stroke-width:1.0;" width="6" x="262" y="486.7441"/><text fill="#000000" font-family="sans-serif" font-size="14" lengthAdjust="spacing" textLength="81" x="274" y="493.5352">damage: int</text><rect fill="none" height="6" style="stroke:#C82930;stroke-width:1.0;" width="6" x="262" y="503.2324"/><text fill="#000000" font-family="sans-serif" font-size="14" lengthAdjust="spacing" textLength="76" x="274" y="510.0234">type: enum</text><line style="stroke:#181818;stroke-width:0.5;" x1="255" x2="387" y1="516.9766" y2="516.9766"/></g><!--class Player--><g id="elem_Player"><rect codeLine="36" fill="#F1F1F1" height="113.9531" id="Player" rx="2.5" ry="2.5" style="stroke:#181818;stroke-width:0.5;" width="126" x="7" y="184"/><ellipse cx="45.85" cy="200" fill="#ADD1B2" rx="11" ry="11" style="stroke:#181818;stroke-width:1.0;"/><path d="M48.3231,206.1431 Q47.7421,206.4419 47.1029,206.5913 Q46.4638,206.7407 45.7582,206.7407 Q43.2514,206.7407 41.9315,205.0889 Q40.6117,203.437 40.6117,200.3159 Q40.6117,197.1865 41.9315,195.5347 Q43.2514,193.8828 45.7582,193.8828 Q46.4638,193.8828 47.1112,194.0322 Q47.7587,194.1816 48.3231,194.4805 L48.3231,197.2031 Q47.6923,196.6221 47.0988,196.3523 Q46.5053,196.0825 45.8744,196.0825 Q44.5297,196.0825 43.8449,197.1492 Q43.1601,198.2158 43.1601,200.3159 Q43.1601,202.4077 43.8449,203.4744 Q44.5297,204.541 45.8744,204.541 Q46.5053,204.541 47.0988,204.2712 Q47.6923,204.0015 48.3231,203.4204 Z " fill="#000000"/><text fill="#000000" font-family="sans-serif" font-size="14" lengthAdjust="spacing" textLength="41" x="65.15" y="205.291">Player</text><line style="stroke:#181818;stroke-width:0.5;" x1="8" x2="132" y1="216" y2="216"/><rect fill="none" height="6" style="stroke:#C82930;stroke-width:1.0;" width="6" x="15" y="226.7441"/><text fill="#000000" font-family="sans-serif" font-size="14" lengthAdjust="spacing" textLength="86" x="27" y="233.5352">name: string</text><rect fill="none" height="6" style="stroke:#C82930;stroke-width:1.0;" width="6" x="15" y="243.2324"/><text fill="#000000" font-family="sans-serif" font-size="14" lengthAdjust="spacing" textLength="85" x="27" y="250.0234">items: Item[]</text><rect fill="none" height="6" style="stroke:#C82930;stroke-width:1.0;" width="6" x="15" y="259.7207"/><text fill="#000000" font-family="sans-serif" font-size="14" lengthAdjust="spacing" textLength="69" x="27" y="266.5117">health: int</text><rect fill="none" height="6" style="stroke:#C82930;stroke-width:1.0;" width="6" x="15" y="276.209"/><text fill="#000000" font-family="sans-serif" font-size="14" lengthAdjust="spacing" textLength="100" x="27" y="283">maxHealth: int</text><line style="stroke:#181818;stroke-width:0.5;" x1="8" x2="132" y1="289.9531" y2="289.9531"/></g><!--class Table--><g id="elem_Table"><rect codeLine="42" fill="#F1F1F1" height="196.3945" id="Table" rx="2.5" ry="2.5" style="stroke:#181818;stroke-width:0.5;" width="298" x="168" y="143"/><ellipse cx="293.75" cy="159" fill="#ADD1B2" rx="11" ry="11" style="stroke:#181818;stroke-width:1.0;"/><path d="M296.2231,165.1431 Q295.6421,165.4419 295.0029,165.5913 Q294.3638,165.7407 293.6582,165.7407 Q291.1514,165.7407 289.8315,164.0889 Q288.5117,162.437 288.5117,159.3159 Q288.5117,156.1865 289.8315,154.5347 Q291.1514,152.8828 293.6582,152.8828 Q294.3638,152.8828 295.0112,153.0322 Q295.6587,153.1816 296.2231,153.4805 L296.2231,156.2031 Q295.5923,155.6221 294.9988,155.3523 Q294.4053,155.0825 293.7744,155.0825 Q292.4297,155.0825 291.7449,156.1492 Q291.0601,157.2158 291.0601,159.3159 Q291.0601,161.4077 291.7449,162.4744 Q292.4297,163.541 293.7744,163.541 Q294.4053,163.541 294.9988,163.2712 Q295.5923,163.0015 296.2231,162.4204 Z " fill="#000000"/><text fill="#000000" font-family="sans-serif" font-size="14" lengthAdjust="spacing" textLength="38" x="314.25" y="164.291">Table</text><line style="stroke:#181818;stroke-width:0.5;" x1="169" x2="465" y1="175" y2="175"/><text fill="#000000" font-family="sans-serif" font-size="14" lengthAdjust="spacing" textLength="108" x="174" y="192.5352">players: Player[]</text><text fill="#000000" font-family="sans-serif" font-size="14" lengthAdjust="spacing" textLength="286" x="174" y="209.0234">encountersGrid: List&lt;Encounter&gt;[2][3][3]</text><text fill="#000000" font-family="sans-serif" font-size="14" lengthAdjust="spacing" textLength="117" x="174" y="225.5117">currentPlayer: int</text><line style="stroke:#181818;stroke-width:0.5;" x1="169" x2="465" y1="232.4648" y2="232.4648"/><ellipse cx="179" cy="246.209" fill="#84BE84" rx="3" ry="3" style="stroke:#038048;stroke-width:1.0;"/><text fill="#000000" font-family="sans-serif" font-size="14" lengthAdjust="spacing" textLength="165" x="188" y="250">AddPlayer(name: string)</text><ellipse cx="179" cy="262.6973" fill="#84BE84" rx="3" ry="3" style="stroke:#038048;stroke-width:1.0;"/><text fill="#000000" font-family="sans-serif" font-size="14" lengthAdjust="spacing" textLength="81" x="188" y="266.4883">StartGame()</text><ellipse cx="179" cy="279.1855" fill="#84BE84" rx="3" ry="3" style="stroke:#038048;stroke-width:1.0;"/><text fill="#000000" font-family="sans-serif" font-size="14" lengthAdjust="spacing" textLength="146" x="188" y="282.9766">NextPlayer(): Boolean</text><ellipse cx="179" cy="295.6738" fill="#84BE84" rx="3" ry="3" style="stroke:#038048;stroke-width:1.0;"/><text fill="#000000" font-family="sans-serif" font-size="14" lengthAdjust="spacing" textLength="130" x="188" y="299.4648">GetWinner(): Player</text><rect fill="#F24D5C" height="6" style="stroke:#C82930;stroke-width:1.0;" width="6" x="176" y="309.1621"/><text fill="#000000" font-family="sans-serif" font-size="14" lengthAdjust="spacing" textLength="120" x="188" y="315.9531">DrawTable(): void</text><rect fill="#F24D5C" height="6" style="stroke:#C82930;stroke-width:1.0;" width="6" x="176" y="325.6504"/><text fill="#000000" font-family="sans-serif" font-size="14" lengthAdjust="spacing" textLength="119" x="188" y="332.4414">ZoomCard(): void</text></g><!--class Item--><g id="elem_Item"><rect codeLine="54" fill="#F1F1F1" height="146.9297" id="Item" rx="2.5" ry="2.5" style="stroke:#181818;stroke-width:0.5;" width="196" x="734" y="167.5"/><ellipse cx="812.75" cy="183.5" fill="#ADD1B2" rx="11" ry="11" style="stroke:#181818;stroke-width:1.0;"/><path d="M815.2231,189.6431 Q814.6421,189.9419 814.0029,190.0913 Q813.3638,190.2407 812.6582,190.2407 Q810.1514,190.2407 808.8315,188.5889 Q807.5117,186.937 807.5117,183.8159 Q807.5117,180.6865 808.8315,179.0347 Q810.1514,177.3828 812.6582,177.3828 Q813.3638,177.3828 814.0112,177.5322 Q814.6587,177.6816 815.2231,177.9805 L815.2231,180.7031 Q814.5923,180.1221 813.9988,179.8523 Q813.4053,179.5825 812.7744,179.5825 Q811.4297,179.5825 810.7449,180.6492 Q810.0601,181.7158 810.0601,183.8159 Q810.0601,185.9077 810.7449,186.9744 Q811.4297,188.041 812.7744,188.041 Q813.4053,188.041 813.9988,187.7712 Q814.5923,187.5015 815.2231,186.9204 Z " fill="#000000"/><text fill="#000000" font-family="sans-serif" font-size="14" lengthAdjust="spacing" textLength="30" x="833.25" y="188.791">Item</text><line style="stroke:#181818;stroke-width:0.5;" x1="735" x2="929" y1="199.5" y2="199.5"/><rect fill="none" height="6" style="stroke:#C82930;stroke-width:1.0;" width="6" x="742" y="210.2441"/><text fill="#000000" font-family="sans-serif" font-size="14" lengthAdjust="spacing" textLength="86" x="754" y="217.0352">name: string</text><rect fill="none" height="6" style="stroke:#C82930;stroke-width:1.0;" width="6" x="742" y="226.7324"/><text fill="#000000" font-family="sans-serif" font-size="14" lengthAdjust="spacing" textLength="125" x="754" y="233.5234">description: string</text><rect fill="none" height="6" style="stroke:#C82930;stroke-width:1.0;" width="6" x="742" y="243.2207"/><text fill="#000000" font-family="sans-serif" font-size="14" lengthAdjust="spacing" textLength="170" x="754" y="250.0117">damageBonuses: string[]</text><rect fill="none" height="6" style="stroke:#C82930;stroke-width:1.0;" width="6" x="742" y="259.709"/><text fill="#000000" font-family="sans-serif" font-size="14" lengthAdjust="spacing" textLength="134" x="754" y="266.5">healPower: Boolean</text><rect fill="none" height="6" style="stroke:#C82930;stroke-width:1.0;" width="6" x="742" y="276.1973"/><text fill="#000000" font-family="sans-serif" font-size="14" lengthAdjust="spacing" textLength="110" x="754" y="282.9883">healAmount: int</text><rect fill="none" height="6" style="stroke:#C82930;stroke-width:1.0;" width="6" x="742" y="292.6855"/><text fill="#000000" font-family="sans-serif" font-size="14" lengthAdjust="spacing" textLength="156" x="754" y="299.4766">attackBonuses: string[]</text><line style="stroke:#181818;stroke-width:0.5;" x1="735" x2="929" y1="306.4297" y2="306.4297"/></g><!--class TextImage--><g id="elem_TextImage"><rect codeLine="62" fill="#F1F1F1" height="130.4414" id="TextImage" rx="2.5" ry="2.5" style="stroke:#181818;stroke-width:0.5;" width="314" x="965" y="176"/><ellipse cx="1081.25" cy="192" fill="#ADD1B2" rx="11" ry="11" style="stroke:#181818;stroke-width:1.0;"/><path d="M1083.7231,198.1431 Q1083.1421,198.4419 1082.5029,198.5913 Q1081.8638,198.7407 1081.1582,198.7407 Q1078.6514,198.7407 1077.3315,197.0889 Q1076.0117,195.437 1076.0117,192.3159 Q1076.0117,189.1865 1077.3315,187.5347 Q1078.6514,185.8828 1081.1582,185.8828 Q1081.8638,185.8828 1082.5112,186.0322 Q1083.1587,186.1816 1083.7231,186.4805 L1083.7231,189.2031 Q1083.0923,188.6221 1082.4988,188.3523 Q1081.9053,188.0825 1081.2744,188.0825 Q1079.9297,188.0825 1079.2449,189.1492 Q1078.5601,190.2158 1078.5601,192.3159 Q1078.5601,194.4077 1079.2449,195.4744 Q1079.9297,196.541 1081.2744,196.541 Q1081.9053,196.541 1082.4988,196.2712 Q1083.0923,196.0015 1083.7231,195.4204 Z " fill="#000000"/><text fill="#000000" font-family="sans-serif" font-size="14" lengthAdjust="spacing" textLength="73" x="1101.75" y="197.291">TextImage</text><line style="stroke:#181818;stroke-width:0.5;" x1="966" x2="1278" y1="208" y2="208"/><rect fill="none" height="6" style="stroke:#C82930;stroke-width:1.0;" width="6" x="973" y="218.7441"/><text fill="#000000" font-family="sans-serif" font-size="14" lengthAdjust="spacing" textLength="122" x="985" y="225.5352">textArray: string[]</text><rect fill="none" height="6" style="stroke:#C82930;stroke-width:1.0;" width="6" x="973" y="235.2324"/><text fill="#000000" font-family="sans-serif" font-size="14" lengthAdjust="spacing" textLength="64" x="985" y="242.0234">width: int</text><rect fill="none" height="6" style="stroke:#C82930;stroke-width:1.0;" width="6" x="973" y="251.7207"/><text fill="#000000" font-family="sans-serif" font-size="14" lengthAdjust="spacing" textLength="70" x="985" y="258.5117">height: int</text><line style="stroke:#181818;stroke-width:0.5;" x1="966" x2="1278" y1="265.4648" y2="265.4648"/><ellipse cx="976" cy="279.209" fill="#84BE84" rx="3" ry="3" style="stroke:#038048;stroke-width:1.0;"/><text fill="#000000" font-family="sans-serif" font-size="14" lengthAdjust="spacing" textLength="191" x="985" y="283">Draw(img:string, x:int, y:int)</text><ellipse cx="976" cy="295.6973" fill="#84BE84" rx="3" ry="3" style="stroke:#038048;stroke-width:1.0;"/><text fill="#000000" font-family="sans-serif" font-size="14" lengthAdjust="spacing" textLength="288" x="985" y="299.4883">DrawCard(x:int, y:int, width:int, height:int)</text></g><!--reverse link Program to Table--><g id="link_Program_Table"><path codeLine="73" d="M317,85.68 C317,102.74 317,122.84 317,142.78 " fill="none" id="Program-backto-Table" style="stroke:#181818;stroke-width:1.0;"/><polygon fill="none" points="317,72.76,313,78.76,317,84.76,321,78.76,317,72.76" style="stroke:#181818;stroke-width:1.0;"/></g><!--reverse link Encounter to SimpleEncounter--><g id="link_Encounter_SimpleEncounter"><path codeLine="74" d="M602,352 C602,352 746.85,353.57 846,403 C862.71,411.33 878.81,423.45 892.73,435.76 " fill="none" id="Encounter-backto-SimpleEncounter" style="stroke:#181818;stroke-width:1.0;"/></g><!--reverse link Encounter to BossEncounter--><g id="link_Encounter_BossEncounter"><path codeLine="75" d="M602,352 C602,352 577.8,380.41 551.9,410.83 " fill="none" id="Encounter-backto-BossEncounter" style="stroke:#181818;stroke-width:1.0;"/></g><!--reverse link Encounter to CompoundEncounter--><g id="link_Encounter_CompoundEncounter"><path codeLine="76" d="M602,352 C602,352 652.18,413.1 684.13,452 " fill="none" id="Encounter-backto-CompoundEncounter" style="stroke:#181818;stroke-width:1.0;"/></g><!--reverse link Encounter to TrapEncounter--><g id="link_Encounter_TrapEncounter"><path codeLine="77" d="M602,352 C602,352 484.72,359.34 406,403 C387.16,413.45 369.35,429.05 354.94,443.74 " fill="none" id="Encounter-backto-TrapEncounter" style="stroke:#181818;stroke-width:1.0;"/></g><!--reverse link Player to Item--><g id="link_Player_Item"><path codeLine="78" d="M100.54,171.46 C116.33,144.34 138.47,116.16 167.5,101 C219.9,73.64 645.2,77.63 699.5,101 C731.93,114.96 760.13,141.19 782.09,167.21 " fill="none" id="Player-backto-Item" style="stroke:#181818;stroke-width:1.0;"/><polygon fill="none" points="94.46,182.48,100.8585,179.1544,100.2496,171.969,93.8511,175.2946,94.46,182.48" style="stroke:#181818;stroke-width:1.0;"/><text fill="#000000" font-family="sans-serif" font-size="13" lengthAdjust="spacing" textLength="8" x="88.2579" y="173.1016">1</text><text fill="#000000" font-family="sans-serif" font-size="13" lengthAdjust="spacing" textLength="34" x="741.5035" y="156.7951">many</text></g><!--reverse link Encounter to TextImage--><g id="link_Encounter_TextImage"><path codeLine="79" d="M698.46,122.01 C709.77,113.64 721.83,106.4 734.5,101 C814.64,66.86 847.69,73.96 930.5,101 C976.5,116.02 1020.62,146.75 1054.89,175.6 " fill="none" id="Encounter-backto-TextImage" style="stroke:#181818;stroke-width:1.0;"/><polygon fill="none" points="688.59,129.78,695.7786,129.2108,698.018,122.3562,690.8294,122.9254,688.59,129.78" style="stroke:#181818;stroke-width:1.0;"/></g><!--reverse link Table to TextImage--><g id="link_Table_TextImage"><path codeLine="80" d="M434.72,134.6 C455.69,120.82 478.3,108.81 501.5,101 C591.86,70.6 839.88,71.41 930.5,101 C976.5,116.02 1020.62,146.75 1054.89,175.6 " fill="none" id="Table-backto-TextImage" style="stroke:#181818;stroke-width:1.0;"/><polygon fill="none" points="424.15,141.8,431.3608,141.7297,434.0692,135.0465,426.8584,135.1169,424.15,141.8" style="stroke:#181818;stroke-width:1.0;"/></g><!--reverse link Encounter to Item--><g id="link_Encounter_Item"><path codeLine="81" d="M713.51,241 C720.25,241 726.99,241 733.72,241 " fill="none" id="Encounter-backto-Item" style="stroke:#181818;stroke-width:1.0;"/><polygon fill="none" points="700.75,241,706.75,245,712.75,241,706.75,237,700.75,241" style="stroke:#181818;stroke-width:1.0;"/></g><!--reverse link Player to Encounter--><g id="link_Player_Encounter"><path codeLine="82" d="M100.54,171.46 C116.33,144.34 138.47,116.16 167.5,101 C226.4,70.24 405.42,74.85 466.5,101 C483.33,108.2 499.04,118.69 513.35,130.73 " fill="none" id="Player-backto-Encounter" style="stroke:#181818;stroke-width:1.0;"/><polygon fill="none" points="94.46,182.48,100.8585,179.1544,100.2496,171.969,93.8511,175.2946,94.46,182.48" style="stroke:#181818;stroke-width:1.0;"/></g><!--reverse link Player to TextImage--><g id="link_Player_TextImage"><path codeLine="83" d="M100.54,171.46 C116.33,144.34 138.47,116.16 167.5,101 C242.65,61.76 849.91,74.68 930.5,101 C976.5,116.02 1020.62,146.75 1054.89,175.6 " fill="none" id="Player-backto-TextImage" style="stroke:#181818;stroke-width:1.0;"/><polygon fill="none" points="94.46,182.48,100.8585,179.1544,100.2496,171.969,93.8511,175.2946,94.46,182.48" style="stroke:#181818;stroke-width:1.0;"/></g><!--reverse link Table to Encounter--><g id="link_Table_Encounter"><path codeLine="84" d="M480.52,241 C487.25,241 493.99,241 500.72,241 " fill="none" id="Table-backto-Encounter" style="stroke:#181818;stroke-width:1.0;"/><polygon fill="none" points="467.75,241,473.75,245,479.75,241,473.75,237,467.75,241" style="stroke:#181818;stroke-width:1.0;"/></g><!--reverse link Item to TextImage--><g id="link_Item_TextImage"><path codeLine="85" d="M944.54,241 C951.27,241 957.99,241 964.72,241 " fill="none" id="Item-backto-TextImage" style="stroke:#181818;stroke-width:1.0;"/><polygon fill="none" points="931.79,241,937.7944,244.9934,943.79,240.9868,937.7856,236.9934,931.79,241" style="stroke:#181818;stroke-width:1.0;"/></g><!--reverse link CompoundEncounter to SimpleEncounter--><g id="link_CompoundEncounter_SimpleEncounter"><path codeLine="86" d="M843.37,484.5 C850.19,484.5 857.02,484.5 863.85,484.5 " fill="none" id="CompoundEncounter-backto-SimpleEncounter" style="stroke:#181818;stroke-width:1.0;"/><polygon fill="none" points="830.41,484.5,836.41,488.5,842.41,484.5,836.41,480.5,830.41,484.5" style="stroke:#181818;stroke-width:1.0;"/></g><!--SRC=[bLHDYzim4BtxLuZi9I7n8UdDB8LajwI1KfRTXKB37YQsi4KioKXoaz3clrTVjcKxWTO4xBnvUlEXcP4A54bHMeAKw4NmN015loEadxc2GuaJz6vUqJM2WrG2KkN9NrZAQwQmyFG71bIpDOUmt24PbgaWbIASzGq2dq1aCa4xXUd-mu6fXhGtV5Ox2Zbs836V8_HPm6awIz0lJZA7lDRC00VEImpCOLkiNgqZO_6Uhf7YELP56xPBvetGgiJ3bCmJ5rM225CTa86BgGUgIwKXp6fgiMkWlU5I_e_oyeRqCj0EgAiRrDMGUi9ml1FQ4wULZYkx6LuBwdiQrCTVMIZrBg2wAVDlvRf6lWLBkBJdur5BnKHVOxzluW93gOhEGKpX_3N06cdRnrwvicwqaFFdfN2RyLOGtOlVY5IFRLAVzwkF_IVpSsdNGc2cd83pvCPcdMKEd8RXpvpnJO5GMurFFV1TTxQdwoxT1Fqxr_txWp3cB8xZ4ZJjRxFfpK3yatFwvDlTeatcfbhtItflIltDRJYh9PQDAQpw2p-PrCEWBRwcfcB1ZO1Ia1x7IktLDEFTHAaqi1O2BaEt9vBrxhh092y2LtEx6WZD4tTkWSw9jYtGnRnc7SSMAhGjaDEsdrxM7j5HHl98M0LcD-Q2rzMEwGL25B0KerKKDNkJnx7VbjqaFFxHu61yXkRUXXWQHpCw9FGcB_83D5bET3XeGe5T9hO1WcFQq2rKDnOzgCUqPxsg_ZloT5kiezdcwv76MuUFI_GN]--></g></svg>