<?xml version="1.0" encoding="UTF-8" standalone="no"?><svg xmlns="http://www.w3.org/2000/svg" xmlns:xlink="http://www.w3.org/1999/xlink" contentStyleType="text/css" height="557px" preserveAspectRatio="none" style="width:1560px;height:557px;background:#FFFFFF;" version="1.1" viewBox="0 0 1560 557" width="1560px" zoomAndPan="magnify"><defs/><g><!--class Program--><g id="elem_Program"><rect codeLine="1" fill="#F1F1F1" height="113.9531" id="Program" rx="2.5" ry="2.5" style="stroke:#181818;stroke-width:0.5;" width="180" x="566.5" y="7"/><ellipse cx="622.75" cy="23" fill="#ADD1B2" rx="11" ry="11" style="stroke:#181818;stroke-width:1.0;"/><path d="M625.2231,29.1431 Q624.6421,29.4419 624.0029,29.5913 Q623.3638,29.7407 622.6582,29.7407 Q620.1514,29.7407 618.8315,28.0889 Q617.5117,26.437 617.5117,23.3159 Q617.5117,20.1865 618.8315,18.5347 Q620.1514,16.8828 622.6582,16.8828 Q623.3638,16.8828 624.0112,17.0322 Q624.6587,17.1816 625.2231,17.4805 L625.2231,20.2031 Q624.5923,19.6221 623.9988,19.3523 Q623.4053,19.0825 622.7744,19.0825 Q621.4297,19.0825 620.7449,20.1492 Q620.0601,21.2158 620.0601,23.3159 Q620.0601,25.4077 620.7449,26.4744 Q621.4297,27.541 622.7744,27.541 Q623.4053,27.541 623.9988,27.2712 Q624.5923,27.0015 625.2231,26.4204 Z " fill="#000000"/><text fill="#000000" font-family="sans-serif" font-size="14" lengthAdjust="spacing" textLength="59" x="643.25" y="28.291">Program</text><line style="stroke:#181818;stroke-width:0.5;" x1="567.5" x2="745.5" y1="39" y2="39"/><ellipse cx="577.5" cy="52.7441" fill="none" rx="3" ry="3" style="stroke:#038048;stroke-width:1.0;"/><text fill="#000000" font-family="sans-serif" font-size="14" lengthAdjust="spacing" text-decoration="underline" textLength="121" x="586.5" y="56.5352">goals: List&lt;Goal&gt;</text><line style="stroke:#181818;stroke-width:0.5;" x1="567.5" x2="745.5" y1="63.4883" y2="63.4883"/><ellipse cx="577.5" cy="77.2324" fill="#84BE84" rx="3" ry="3" style="stroke:#038048;stroke-width:1.0;"/><text fill="#000000" font-family="sans-serif" font-size="14" lengthAdjust="spacing" text-decoration="underline" textLength="154" x="586.5" y="81.0234">Main(args:string): void</text><ellipse cx="577.5" cy="93.7207" fill="#84BE84" rx="3" ry="3" style="stroke:#038048;stroke-width:1.0;"/><text fill="#000000" font-family="sans-serif" font-size="14" lengthAdjust="spacing" text-decoration="underline" textLength="123" x="586.5" y="97.5117">CreateGoal(): void</text><ellipse cx="577.5" cy="110.209" fill="#84BE84" rx="3" ry="3" style="stroke:#038048;stroke-width:1.0;"/><text fill="#000000" font-family="sans-serif" font-size="14" lengthAdjust="spacing" text-decoration="underline" textLength="88" x="586.5" y="114">ReadInt(): int</text></g><!--class Goal--><g id="elem_Goal"><rect codeLine="7" fill="#F1F1F1" height="196.3945" id="Goal" rx="2.5" ry="2.5" style="stroke:#181818;stroke-width:0.5;" width="351" x="481" y="181"/><ellipse cx="636.75" cy="197" fill="#A9DCDF" rx="11" ry="11" style="stroke:#181818;stroke-width:1.0;"/><path d="M636.6133,192.3481 L635.4595,197.4199 L637.7754,197.4199 Z M635.1191,190.1069 L638.1157,190.1069 L641.4609,202.5 L639.0122,202.5 L638.2485,199.437 L634.9697,199.437 L634.2227,202.5 L631.7739,202.5 Z " fill="#000000"/><text fill="#000000" font-family="sans-serif" font-size="14" font-style="italic" lengthAdjust="spacing" textLength="31" x="657.25" y="202.291">Goal</text><line style="stroke:#181818;stroke-width:0.5;" x1="482" x2="831" y1="213" y2="213"/><polygon fill="none" points="492,221.7441,496,225.7441,492,229.7441,488,225.7441" style="stroke:#B38D22;stroke-width:1.0;"/><text fill="#000000" font-family="sans-serif" font-size="14" lengthAdjust="spacing" textLength="86" x="501" y="230.5352">name: string</text><polygon fill="none" points="492,238.2324,496,242.2324,492,246.2324,488,242.2324" style="stroke:#B38D22;stroke-width:1.0;"/><text fill="#000000" font-family="sans-serif" font-size="14" lengthAdjust="spacing" textLength="125" x="501" y="247.0234">description: string</text><polygon fill="none" points="492,254.7207,496,258.7207,492,262.7207,488,258.7207" style="stroke:#B38D22;stroke-width:1.0;"/><text fill="#000000" font-family="sans-serif" font-size="14" lengthAdjust="spacing" textLength="135" x="501" y="263.5117">completed: Boolean</text><polygon fill="none" points="492,271.209,496,275.209,492,279.209,488,275.209" style="stroke:#B38D22;stroke-width:1.0;"/><text fill="#000000" font-family="sans-serif" font-size="14" lengthAdjust="spacing" textLength="69" x="501" y="280">points: int</text><line style="stroke:#181818;stroke-width:0.5;" x1="482" x2="831" y1="286.9531" y2="286.9531"/><ellipse cx="492" cy="300.6973" fill="#84BE84" rx="3" ry="3" style="stroke:#038048;stroke-width:1.0;"/><text fill="#000000" font-family="sans-serif" font-size="14" lengthAdjust="spacing" textLength="325" x="501" y="304.4883">Goal(name:string, description:string, points:int)</text><ellipse cx="492" cy="317.1855" fill="#84BE84" rx="3" ry="3" style="stroke:#038048;stroke-width:1.0;"/><text fill="#000000" font-family="sans-serif" font-size="14" font-style="italic" lengthAdjust="spacing" textLength="116" x="501" y="320.9766">Serialize(): string</text><ellipse cx="492" cy="333.6738" fill="#84BE84" rx="3" ry="3" style="stroke:#038048;stroke-width:1.0;"/><text fill="#000000" font-family="sans-serif" font-size="14" font-style="italic" lengthAdjust="spacing" textLength="148" x="501" y="337.4648">Completed(): Boolean</text><ellipse cx="492" cy="350.1621" fill="#84BE84" rx="3" ry="3" style="stroke:#038048;stroke-width:1.0;"/><text fill="#000000" font-family="sans-serif" font-size="14" font-style="italic" lengthAdjust="spacing" textLength="136" x="501" y="353.9531">GetTotalPoints(): int</text><ellipse cx="492" cy="366.6504" fill="#84BE84" rx="3" ry="3" style="stroke:#038048;stroke-width:1.0;"/><text fill="#000000" font-family="sans-serif" font-size="14" font-style="italic" lengthAdjust="spacing" textLength="147" x="501" y="370.4414">MarkComplete(): void</text></g><!--class SimpleGoal--><g id="elem_SimpleGoal"><rect codeLine="18" fill="#F1F1F1" height="64.4883" id="SimpleGoal" rx="2.5" ry="2.5" style="stroke:#181818;stroke-width:0.5;" width="409" x="7" y="462"/><ellipse cx="168.75" cy="478" fill="#ADD1B2" rx="11" ry="11" style="stroke:#181818;stroke-width:1.0;"/><path d="M171.2231,484.1431 Q170.6421,484.4419 170.0029,484.5913 Q169.3638,484.7407 168.6582,484.7407 Q166.1514,484.7407 164.8315,483.0889 Q163.5117,481.437 163.5117,478.3159 Q163.5117,475.1865 164.8315,473.5347 Q166.1514,471.8828 168.6582,471.8828 Q169.3638,471.8828 170.0112,472.0322 Q170.6587,472.1816 171.2231,472.4805 L171.2231,475.2031 Q170.5923,474.6221 169.9988,474.3523 Q169.4053,474.0825 168.7744,474.0825 Q167.4297,474.0825 166.7449,475.1492 Q166.0601,476.2158 166.0601,478.3159 Q166.0601,480.4077 166.7449,481.4744 Q167.4297,482.541 168.7744,482.541 Q169.4053,482.541 169.9988,482.2712 Q170.5923,482.0015 171.2231,481.4204 Z " fill="#000000"/><text fill="#000000" font-family="sans-serif" font-size="14" lengthAdjust="spacing" textLength="77" x="189.25" y="483.291">SimpleGoal</text><line style="stroke:#181818;stroke-width:0.5;" x1="8" x2="415" y1="494" y2="494"/><line style="stroke:#181818;stroke-width:0.5;" x1="8" x2="415" y1="502" y2="502"/><ellipse cx="18" cy="515.7441" fill="#84BE84" rx="3" ry="3" style="stroke:#038048;stroke-width:1.0;"/><text fill="#000000" font-family="sans-serif" font-size="14" lengthAdjust="spacing" textLength="383" x="27" y="519.5352">SimpleGoal(name: string, description: string, points: int)</text></g><!--class EternalGoal--><g id="elem_EternalGoal"><rect codeLine="21" fill="#F1F1F1" height="80.9766" id="EternalGoal" rx="2.5" ry="2.5" style="stroke:#181818;stroke-width:0.5;" width="411" x="451" y="453.5"/><ellipse cx="612.75" cy="469.5" fill="#ADD1B2" rx="11" ry="11" style="stroke:#181818;stroke-width:1.0;"/><path d="M615.2231,475.6431 Q614.6421,475.9419 614.0029,476.0913 Q613.3638,476.2407 612.6582,476.2407 Q610.1514,476.2407 608.8315,474.5889 Q607.5117,472.937 607.5117,469.8159 Q607.5117,466.6865 608.8315,465.0347 Q610.1514,463.3828 612.6582,463.3828 Q613.3638,463.3828 614.0112,463.5322 Q614.6587,463.6816 615.2231,463.9805 L615.2231,466.7031 Q614.5923,466.1221 613.9988,465.8523 Q613.4053,465.5825 612.7744,465.5825 Q611.4297,465.5825 610.7449,466.6492 Q610.0601,467.7158 610.0601,469.8159 Q610.0601,471.9077 610.7449,472.9744 Q611.4297,474.041 612.7744,474.041 Q613.4053,474.041 613.9988,473.7712 Q614.5923,473.5015 615.2231,472.9204 Z " fill="#000000"/><text fill="#000000" font-family="sans-serif" font-size="14" lengthAdjust="spacing" textLength="79" x="633.25" y="474.791">EternalGoal</text><line style="stroke:#181818;stroke-width:0.5;" x1="452" x2="861" y1="485.5" y2="485.5"/><rect fill="none" height="6" style="stroke:#C82930;stroke-width:1.0;" width="6" x="459" y="496.2441"/><text fill="#000000" font-family="sans-serif" font-size="14" lengthAdjust="spacing" textLength="138" x="471" y="503.0352">timesCompleted: int</text><line style="stroke:#181818;stroke-width:0.5;" x1="452" x2="861" y1="509.9883" y2="509.9883"/><ellipse cx="462" cy="523.7324" fill="#84BE84" rx="3" ry="3" style="stroke:#038048;stroke-width:1.0;"/><text fill="#000000" font-family="sans-serif" font-size="14" lengthAdjust="spacing" textLength="385" x="471" y="527.5234">EternalGoal(name: string, description: string, points: int)</text></g><!--class ChecklistGoal--><g id="elem_ChecklistGoal"><rect codeLine="25" fill="#F1F1F1" height="113.9531" id="ChecklistGoal" rx="2.5" ry="2.5" style="stroke:#181818;stroke-width:0.5;" width="656" x="897.5" y="437"/><ellipse cx="1174.75" cy="453" fill="#ADD1B2" rx="11" ry="11" style="stroke:#181818;stroke-width:1.0;"/><path d="M1177.2231,459.1431 Q1176.6421,459.4419 1176.0029,459.5913 Q1175.3638,459.7407 1174.6582,459.7407 Q1172.1514,459.7407 1170.8315,458.0889 Q1169.5117,456.437 1169.5117,453.3159 Q1169.5117,450.1865 1170.8315,448.5347 Q1172.1514,446.8828 1174.6582,446.8828 Q1175.3638,446.8828 1176.0112,447.0322 Q1176.6587,447.1816 1177.2231,447.4805 L1177.2231,450.2031 Q1176.5923,449.6221 1175.9988,449.3523 Q1175.4053,449.0825 1174.7744,449.0825 Q1173.4297,449.0825 1172.7449,450.1492 Q1172.0601,451.2158 1172.0601,453.3159 Q1172.0601,455.4077 1172.7449,456.4744 Q1173.4297,457.541 1174.7744,457.541 Q1175.4053,457.541 1175.9988,457.2712 Q1176.5923,457.0015 1177.2231,456.4204 Z " fill="#000000"/><text fill="#000000" font-family="sans-serif" font-size="14" lengthAdjust="spacing" textLength="93" x="1195.25" y="458.291">ChecklistGoal</text><line style="stroke:#181818;stroke-width:0.5;" x1="898.5" x2="1552.5" y1="469" y2="469"/><rect fill="none" height="6" style="stroke:#C82930;stroke-width:1.0;" width="6" x="905.5" y="479.7441"/><text fill="#000000" font-family="sans-serif" font-size="14" lengthAdjust="spacing" textLength="69" x="917.5" y="486.5352">bonus: int</text><rect fill="none" height="6" style="stroke:#C82930;stroke-width:1.0;" width="6" x="905.5" y="496.2324"/><text fill="#000000" font-family="sans-serif" font-size="14" lengthAdjust="spacing" textLength="110" x="917.5" y="503.0234">completions: int</text><rect fill="none" height="6" style="stroke:#C82930;stroke-width:1.0;" width="6" x="905.5" y="512.7207"/><text fill="#000000" font-family="sans-serif" font-size="14" lengthAdjust="spacing" textLength="154" x="917.5" y="519.5117">targetCompletions: int</text><line style="stroke:#181818;stroke-width:0.5;" x1="898.5" x2="1552.5" y1="526.4648" y2="526.4648"/><ellipse cx="908.5" cy="540.209" fill="#84BE84" rx="3" ry="3" style="stroke:#038048;stroke-width:1.0;"/><text fill="#000000" font-family="sans-serif" font-size="14" lengthAdjust="spacing" textLength="630" x="917.5" y="544">ChecklistGoal(name: string, description: string, points:int, targetCompletions:int, bonus:int )</text></g><!--reverse link Goal to SimpleGoal--><g id="link_Goal_SimpleGoal"><path codeLine="33" d="M461.62,373.28 C395.51,404.92 326.09,438.15 277.2,461.55 " fill="none" id="Goal-backto-SimpleGoal" style="stroke:#181818;stroke-width:1.0;"/><polygon fill="none" points="458.2,367.16,479.26,364.84,464.24,379.79,458.2,367.16" style="stroke:#181818;stroke-width:1.0;"/></g><!--reverse link Goal to EternalGoal--><g id="link_Goal_EternalGoal"><path codeLine="34" d="M656.5,398.79 C656.5,418.37 656.5,437.38 656.5,453.14 " fill="none" id="Goal-backto-EternalGoal" style="stroke:#181818;stroke-width:1.0;"/><polygon fill="none" points="649.5,398.97,656.5,378.97,663.5,398.97,649.5,398.97" style="stroke:#181818;stroke-width:1.0;"/></g><!--reverse link Goal to ChecklistGoal--><g id="link_Goal_ChecklistGoal"><path codeLine="35" d="M852.08,353.21 C925.03,380.52 1006.64,411.07 1074.93,436.63 " fill="none" id="Goal-backto-ChecklistGoal" style="stroke:#181818;stroke-width:1.0;"/><polygon fill="none" points="849.94,359.89,833.67,346.32,854.85,346.78,849.94,359.89" style="stroke:#181818;stroke-width:1.0;"/></g><!--reverse link Program to Goal--><g id="link_Program_Goal"><path codeLine="37" d="M656.5,135.35 C656.5,149.85 656.5,165.36 656.5,180.62 " fill="none" id="Program-backto-Goal" style="stroke:#181818;stroke-width:1.0;"/><polygon fill="none" points="656.5,122.76,652.5,128.76,656.5,134.76,660.5,128.76,656.5,122.76" style="stroke:#181818;stroke-width:1.0;"/><text fill="#000000" font-family="sans-serif" font-size="13" lengthAdjust="spacing" textLength="8" x="648.0125" y="141.7203">1</text><text fill="#000000" font-family="sans-serif" font-size="13" lengthAdjust="spacing" textLength="34" x="621.2516" y="170.4097">many</text></g><!--SRC=[dLDTJzj047o_Nx4ABxQ24Ka1WOMg2ZTD6yLIX0Fl6_lgdh3lehjr90hvxxtp1rnINjeyMCxCxEpidiyGaiWXhz0OM6bLQgpXXO7zZLzCI-wXL5YP69R2qEtSldy-ubCKCa1TcjYG5h8COzWfKHof4isHkAiFFXRSSon-I7AiaCJs33VM3tFguxdIFjk9n9h7qBNha8ARN8ij2IKFYLpLsueJBsAuKwhYA3jygsmNq_LgWxJHMkEk_1Hypm7ho-mZxFCFCVUGSIsm4h-vcy7Bu6kI8OxJ-85yqPpJMX5MgxRPi95ZLOhwQR1xs-cUTTlAX2EydOtVaS1Vt-6OS3Gdj8CEfZFYMcBbkKOaQcwIzns_1VMq_zql-SNpfyf-Ttx7ZPADTsvHVy3MpKV9Vf2Sae-uyO7jFuIpZrFusxY5krJs5K9cyxCsyUrh57aduO7UTZpq81XZmuKSJKQWB3sgKJwFsel0ld1PM4M5aXxI9UouDZOCJCwcvzDFPvCWQoGiKCBq1iuluilh-F8ALjaQ71soOBvQWb6DpZaKmesvQTmm8LlW3k6-aUvSOt3_WdKQGZORG9Z9dT1ArjokS_6OTYBuhYZRAch5LnVHdI1t7MmiU4pPL_uJcufiQQuAkz4O7jRVecksH5asMDf6NB94sGRwsNBP7m00]--></g></svg>