<?xml version="1.0" encoding="UTF-8" standalone="no"?><svg xmlns="http://www.w3.org/2000/svg" xmlns:xlink="http://www.w3.org/1999/xlink" contentStyleType="text/css" height="399px" preserveAspectRatio="none" style="width:429px;height:399px;background:#FFFFFF;" version="1.1" viewBox="0 0 429 399" width="429px" zoomAndPan="magnify"><defs/><g><!--class Program--><g id="elem_Program"><rect codeLine="1" fill="#F1F1F1" height="64.4883" id="Program" rx="2.5" ry="2.5" style="stroke:#181818;stroke-width:0.5;" width="176" x="118.5" y="7"/><ellipse cx="172.75" cy="23" fill="#ADD1B2" rx="11" ry="11" style="stroke:#181818;stroke-width:1.0;"/><path d="M175.2231,29.1431 Q174.6421,29.4419 174.0029,29.5913 Q173.3638,29.7407 172.6582,29.7407 Q170.1514,29.7407 168.8315,28.0889 Q167.5117,26.437 167.5117,23.3159 Q167.5117,20.1865 168.8315,18.5347 Q170.1514,16.8828 172.6582,16.8828 Q173.3638,16.8828 174.0112,17.0322 Q174.6587,17.1816 175.2231,17.4805 L175.2231,20.2031 Q174.5923,19.6221 173.9988,19.3523 Q173.4053,19.0825 172.7744,19.0825 Q171.4297,19.0825 170.7449,20.1492 Q170.0601,21.2158 170.0601,23.3159 Q170.0601,25.4077 170.7449,26.4744 Q171.4297,27.541 172.7744,27.541 Q173.4053,27.541 173.9988,27.2712 Q174.5923,27.0015 175.2231,26.4204 Z " fill="#000000"/><text fill="#000000" font-family="sans-serif" font-size="14" lengthAdjust="spacing" textLength="59" x="193.25" y="28.291">Program</text><line style="stroke:#181818;stroke-width:0.5;" x1="119.5" x2="293.5" y1="39" y2="39"/><line style="stroke:#181818;stroke-width:0.5;" x1="119.5" x2="293.5" y1="47" y2="47"/><ellipse cx="129.5" cy="60.7441" fill="#84BE84" rx="3" ry="3" style="stroke:#038048;stroke-width:1.0;"/><text fill="#000000" font-family="sans-serif" font-size="14" lengthAdjust="spacing" textLength="150" x="138.5" y="64.5352">Main(args:string):void</text></g><!--class Goal--><g id="elem_Goal"><rect codeLine="4" fill="#F1F1F1" height="97.4648" id="Goal" rx="2.5" ry="2.5" style="stroke:#181818;stroke-width:0.5;" width="138" x="137.5" y="151"/><ellipse cx="186.75" cy="167" fill="#A9DCDF" rx="11" ry="11" style="stroke:#181818;stroke-width:1.0;"/><path d="M186.6133,162.3481 L185.4595,167.4199 L187.7754,167.4199 Z M185.1191,160.1069 L188.1157,160.1069 L191.4609,172.5 L189.0122,172.5 L188.2485,169.437 L184.9697,169.437 L184.2227,172.5 L181.7739,172.5 Z " fill="#000000"/><text fill="#000000" font-family="sans-serif" font-size="14" font-style="italic" lengthAdjust="spacing" textLength="31" x="207.25" y="172.291">Goal</text><line style="stroke:#181818;stroke-width:0.5;" x1="138.5" x2="274.5" y1="183" y2="183"/><rect fill="none" height="6" style="stroke:#C82930;stroke-width:1.0;" width="6" x="145.5" y="193.7441"/><text fill="#000000" font-family="sans-serif" font-size="14" lengthAdjust="spacing" textLength="38" x="157.5" y="200.5352">name</text><polygon fill="none" points="148.5,208.2324,152.5,212.2324,148.5,216.2324,144.5,212.2324" style="stroke:#B38D22;stroke-width:1.0;"/><text fill="#000000" font-family="sans-serif" font-size="14" lengthAdjust="spacing" textLength="112" x="157.5" y="217.0234">timesCompleted</text><line style="stroke:#181818;stroke-width:0.5;" x1="138.5" x2="274.5" y1="223.9766" y2="223.9766"/><ellipse cx="148.5" cy="237.7207" fill="#84BE84" rx="3" ry="3" style="stroke:#038048;stroke-width:1.0;"/><text fill="#000000" font-family="sans-serif" font-size="14" lengthAdjust="spacing" textLength="112" x="157.5" y="241.5117">Serialize():string</text></g><polygon fill="none" points="207.1985,248.4648,214.4844,268.3625,200.4859,268.5631" style="stroke:#181818;stroke-width:1.0;"/><line style="stroke:#181818;stroke-width:1.0;" x1="207.4851" x2="207.5" y1="268.4628" y2="269.5"/><line style="stroke:#181818;stroke-width:1.0;" x1="206.5" x2="206.5" y1="151" y2="130.54"/><!--class SimpleGoal--><g id="elem_SimpleGoal"><rect codeLine="9" fill="#F1F1F1" height="64.4883" id="SimpleGoal" rx="2.5" ry="2.5" style="stroke:#181818;stroke-width:0.5;" width="109" x="7" y="328"/><ellipse cx="22" cy="344" fill="#ADD1B2" rx="11" ry="11" style="stroke:#181818;stroke-width:1.0;"/><path d="M24.4731,350.1431 Q23.8921,350.4419 23.2529,350.5913 Q22.6138,350.7407 21.9082,350.7407 Q19.4014,350.7407 18.0815,349.0889 Q16.7617,347.437 16.7617,344.3159 Q16.7617,341.1865 18.0815,339.5347 Q19.4014,337.8828 21.9082,337.8828 Q22.6138,337.8828 23.2612,338.0322 Q23.9087,338.1816 24.4731,338.4805 L24.4731,341.2031 Q23.8423,340.6221 23.2488,340.3523 Q22.6553,340.0825 22.0244,340.0825 Q20.6797,340.0825 19.9949,341.1492 Q19.3101,342.2158 19.3101,344.3159 Q19.3101,346.4077 19.9949,347.4744 Q20.6797,348.541 22.0244,348.541 Q22.6553,348.541 23.2488,348.2712 Q23.8423,348.0015 24.4731,347.4204 Z " fill="#000000"/><text fill="#000000" font-family="sans-serif" font-size="14" lengthAdjust="spacing" textLength="77" x="36" y="349.291">SimpleGoal</text><line style="stroke:#181818;stroke-width:0.5;" x1="8" x2="115" y1="360" y2="360"/><ellipse cx="18" cy="373.7441" fill="none" rx="3" ry="3" style="stroke:#038048;stroke-width:1.0;"/><text fill="#000000" font-family="sans-serif" font-size="14" lengthAdjust="spacing" textLength="57" x="27" y="377.5352">plusssss</text><line style="stroke:#181818;stroke-width:0.5;" x1="8" x2="115" y1="384.4883" y2="384.4883"/></g><!--class EternalGoal--><g id="elem_EternalGoal"><rect codeLine="12" fill="#F1F1F1" height="48" id="EternalGoal" rx="2.5" ry="2.5" style="stroke:#181818;stroke-width:0.5;" width="111" x="151" y="336"/><ellipse cx="166" cy="352" fill="#ADD1B2" rx="11" ry="11" style="stroke:#181818;stroke-width:1.0;"/><path d="M168.4731,358.1431 Q167.8921,358.4419 167.2529,358.5913 Q166.6138,358.7407 165.9082,358.7407 Q163.4014,358.7407 162.0815,357.0889 Q160.7617,355.437 160.7617,352.3159 Q160.7617,349.1865 162.0815,347.5347 Q163.4014,345.8828 165.9082,345.8828 Q166.6138,345.8828 167.2612,346.0322 Q167.9087,346.1816 168.4731,346.4805 L168.4731,349.2031 Q167.8423,348.6221 167.2488,348.3523 Q166.6553,348.0825 166.0244,348.0825 Q164.6797,348.0825 163.9949,349.1492 Q163.3101,350.2158 163.3101,352.3159 Q163.3101,354.4077 163.9949,355.4744 Q164.6797,356.541 166.0244,356.541 Q166.6553,356.541 167.2488,356.2712 Q167.8423,356.0015 168.4731,355.4204 Z " fill="#000000"/><text fill="#000000" font-family="sans-serif" font-size="14" lengthAdjust="spacing" textLength="79" x="180" y="357.291">EternalGoal</text><line style="stroke:#181818;stroke-width:0.5;" x1="152" x2="261" y1="368" y2="368"/><line style="stroke:#181818;stroke-width:0.5;" x1="152" x2="261" y1="376" y2="376"/></g><!--class ChecklistGoal--><g id="elem_ChecklistGoal"><rect codeLine="15" fill="#F1F1F1" height="48" id="ChecklistGoal" rx="2.5" ry="2.5" style="stroke:#181818;stroke-width:0.5;" width="125" x="297" y="336"/><ellipse cx="312" cy="352" fill="#ADD1B2" rx="11" ry="11" style="stroke:#181818;stroke-width:1.0;"/><path d="M314.4731,358.1431 Q313.8921,358.4419 313.2529,358.5913 Q312.6138,358.7407 311.9082,358.7407 Q309.4014,358.7407 308.0815,357.0889 Q306.7617,355.437 306.7617,352.3159 Q306.7617,349.1865 308.0815,347.5347 Q309.4014,345.8828 311.9082,345.8828 Q312.6138,345.8828 313.2612,346.0322 Q313.9087,346.1816 314.4731,346.4805 L314.4731,349.2031 Q313.8423,348.6221 313.2488,348.3523 Q312.6553,348.0825 312.0244,348.0825 Q310.6797,348.0825 309.9949,349.1492 Q309.3101,350.2158 309.3101,352.3159 Q309.3101,354.4077 309.9949,355.4744 Q310.6797,356.541 312.0244,356.541 Q312.6553,356.541 313.2488,356.2712 Q313.8423,356.0015 314.4731,355.4204 Z " fill="#000000"/><text fill="#000000" font-family="sans-serif" font-size="14" lengthAdjust="spacing" textLength="93" x="326" y="357.291">ChecklistGoal</text><line style="stroke:#181818;stroke-width:0.5;" x1="298" x2="421" y1="368" y2="368"/><line style="stroke:#181818;stroke-width:0.5;" x1="298" x2="421" y1="376" y2="376"/></g><!--reverse link Goal to SimpleGoal--><g id="link_Goal_SimpleGoal"><path codeLine="22" d="M207.5,269.5 C207.5,269.5 154.67,301.89 112.56,327.7 " fill="none" id="Goal-backto-SimpleGoal" style="stroke:#181818;stroke-width:1.0;"/></g><!--reverse link Goal to EternalGoal--><g id="link_Goal_EternalGoal"><path codeLine="23" d="M207.5,269.5 C207.5,269.5 207.05,309.43 206.76,335.95 " fill="none" id="Goal-backto-EternalGoal" style="stroke:#181818;stroke-width:1.0;"/></g><!--reverse link Goal to ChecklistGoal--><g id="link_Goal_ChecklistGoal"><path codeLine="24" d="M207.5,269.5 C207.5,269.5 274.92,309.2 319.96,335.72 " fill="none" id="Goal-backto-ChecklistGoal" style="stroke:#181818;stroke-width:1.0;"/></g><!--reverse link Program to Goal--><g id="link_Program_Goal"><path codeLine="26" d="M206.5,85.72 C206.5,99.71 206.5,115.4 206.5,130.54 " fill="none" id="Program-backto-Goal" style="stroke:#181818;stroke-width:1.0;"/><polygon fill="#181818" points="206.5,72.83,202.5,78.83,206.5,84.83,210.5,78.83,206.5,72.83" style="stroke:#181818;stroke-width:1.0;"/></g><!--SRC=[LL7BRi8m4BpxArRg9MaL12aW6lLGbL9QH2JK0FSbSOE5iuvi9r9V_rudF9hwPC_CpgntKud6m4ghN6C1NmpSkObHa8SwDv6nMb3kHxKI6VjXk7C0fXRIjcokK9vg0iA2jxShAmfkfgee9RSyEpecN0kKufDx_idJkHrD4j4eErOtKChADEUYcLck2UL9T86dUvuUf33sZs3c8AZ4vZEvLbNvIdiNRP5I3Y5Zh5NUVmT19xS3Te8wwBySnixJkdPKYpnmoXmiaUmcNaBDjH6AOD0B- -5jR-0b5S422S8xw0-ZqIGQZM6LhA6XVURDLqimgjAknKmqqzbLrjNxR84rmbj5pKGZQ5xUElOXcPr1c54jjAA2asMBRNmKmOkoIQbiAnuFWqTXmIt0jGNRc3tnTwoaTQMfojmY8jYiduC9MoBb5UOkY1ERAXUWFnoN_080]--></g></svg>